<mxfile host="app.diagrams.net" modified="2023-10-06T07:15:03.471Z" agent="Mozilla/5.0 (Macintosh; Intel Mac OS X 10_15_7) AppleWebKit/537.36 (KHTML, like Gecko) Chrome/117.0.0.0 Safari/537.36" etag="f6Ghec32SlQB2C7GKLkK" version="22.0.3" type="device">
  <diagram name="第 1 页" id="ky-H2oVYUhub9wNiggzA">
    <mxGraphModel dx="1224" dy="710" grid="1" gridSize="10" guides="1" tooltips="1" connect="1" arrows="1" fold="1" page="1" pageScale="1" pageWidth="827" pageHeight="1169" math="0" shadow="0">
      <root>
        <mxCell id="0" />
        <mxCell id="1" parent="0" />
      </root>
    </mxGraphModel>
  </diagram>
</mxfile>
